%TF.GenerationSoftware,KiCad,Pcbnew,7.0.2*%
%TF.CreationDate,2024-01-28T17:58:16-05:00*%
%TF.ProjectId,E-INK Watch,452d494e-4b20-4576-9174-63682e6b6963,rev?*%
%TF.SameCoordinates,Original*%
%TF.FileFunction,Soldermask,Bot*%
%TF.FilePolarity,Negative*%
%FSLAX46Y46*%
G04 Gerber Fmt 4.6, Leading zero omitted, Abs format (unit mm)*
G04 Created by KiCad (PCBNEW 7.0.2) date 2024-01-28 17:58:16*
%MOMM*%
%LPD*%
G01*
G04 APERTURE LIST*
G04 Aperture macros list*
%AMRoundRect*
0 Rectangle with rounded corners*
0 $1 Rounding radius*
0 $2 $3 $4 $5 $6 $7 $8 $9 X,Y pos of 4 corners*
0 Add a 4 corners polygon primitive as box body*
4,1,4,$2,$3,$4,$5,$6,$7,$8,$9,$2,$3,0*
0 Add four circle primitives for the rounded corners*
1,1,$1+$1,$2,$3*
1,1,$1+$1,$4,$5*
1,1,$1+$1,$6,$7*
1,1,$1+$1,$8,$9*
0 Add four rect primitives between the rounded corners*
20,1,$1+$1,$2,$3,$4,$5,0*
20,1,$1+$1,$4,$5,$6,$7,0*
20,1,$1+$1,$6,$7,$8,$9,0*
20,1,$1+$1,$8,$9,$2,$3,0*%
G04 Aperture macros list end*
%ADD10O,1.900000X1.200000*%
%ADD11C,1.450000*%
%ADD12RoundRect,0.150000X0.512500X0.150000X-0.512500X0.150000X-0.512500X-0.150000X0.512500X-0.150000X0*%
%ADD13RoundRect,0.237500X0.300000X0.237500X-0.300000X0.237500X-0.300000X-0.237500X0.300000X-0.237500X0*%
%ADD14RoundRect,0.250000X-0.625000X0.350000X-0.625000X-0.350000X0.625000X-0.350000X0.625000X0.350000X0*%
%ADD15O,1.750000X1.200000*%
%ADD16RoundRect,0.237500X0.237500X-0.250000X0.237500X0.250000X-0.237500X0.250000X-0.237500X-0.250000X0*%
%ADD17RoundRect,0.237500X-0.250000X-0.237500X0.250000X-0.237500X0.250000X0.237500X-0.250000X0.237500X0*%
%ADD18RoundRect,0.237500X0.237500X-0.287500X0.237500X0.287500X-0.237500X0.287500X-0.237500X-0.287500X0*%
%ADD19RoundRect,0.237500X0.237500X-0.300000X0.237500X0.300000X-0.237500X0.300000X-0.237500X-0.300000X0*%
%ADD20RoundRect,0.237500X0.250000X0.237500X-0.250000X0.237500X-0.250000X-0.237500X0.250000X-0.237500X0*%
%ADD21RoundRect,0.150800X0.541200X0.256200X-0.541200X0.256200X-0.541200X-0.256200X0.541200X-0.256200X0*%
%ADD22RoundRect,0.225000X-0.225000X-0.375000X0.225000X-0.375000X0.225000X0.375000X-0.225000X0.375000X0*%
G04 APERTURE END LIST*
D10*
%TO.C,J2*%
X109687500Y-130500000D03*
D11*
X106987500Y-129500000D03*
X106987500Y-124500000D03*
D10*
X109687500Y-123500000D03*
%TD*%
D12*
%TO.C,U4*%
X101967500Y-128910000D03*
X101967500Y-129860000D03*
X101967500Y-130810000D03*
X99692500Y-130810000D03*
X99692500Y-128910000D03*
%TD*%
D13*
%TO.C,C10*%
X105140000Y-134520000D03*
X103415000Y-134520000D03*
%TD*%
D14*
%TO.C,J3*%
X82550000Y-132080000D03*
D15*
X82550000Y-134080000D03*
%TD*%
D16*
%TO.C,R3*%
X85320000Y-124972500D03*
X85320000Y-123147500D03*
%TD*%
D13*
%TO.C,C9*%
X109150000Y-134520000D03*
X107425000Y-134520000D03*
%TD*%
%TO.C,C8*%
X87992500Y-128270000D03*
X86267500Y-128270000D03*
%TD*%
D12*
%TO.C,U3*%
X103137500Y-123510000D03*
X103137500Y-124460000D03*
X103137500Y-125410000D03*
X100862500Y-125410000D03*
X100862500Y-123510000D03*
%TD*%
D17*
%TO.C,R5*%
X81837500Y-128270000D03*
X83662500Y-128270000D03*
%TD*%
D16*
%TO.C,R7*%
X97220000Y-134632500D03*
X97220000Y-132807500D03*
%TD*%
D18*
%TO.C,D1*%
X81980000Y-124935000D03*
X81980000Y-123185000D03*
%TD*%
D19*
%TO.C,C7*%
X98060000Y-125322500D03*
X98060000Y-123597500D03*
%TD*%
D20*
%TO.C,R4*%
X105154100Y-132232400D03*
X103329100Y-132232400D03*
%TD*%
D21*
%TO.C,Q1*%
X95135000Y-123545000D03*
X95135000Y-125375000D03*
X93085000Y-124460000D03*
%TD*%
D16*
%TO.C,R6*%
X97220000Y-130822500D03*
X97220000Y-128997500D03*
%TD*%
D22*
%TO.C,D2*%
X91060000Y-128270000D03*
X94360000Y-128270000D03*
%TD*%
D13*
%TO.C,C11*%
X101192500Y-134520000D03*
X99467500Y-134520000D03*
%TD*%
M02*
