%TF.GenerationSoftware,KiCad,Pcbnew,7.0.2*%
%TF.CreationDate,2024-01-28T17:58:16-05:00*%
%TF.ProjectId,E-INK Watch,452d494e-4b20-4576-9174-63682e6b6963,rev?*%
%TF.SameCoordinates,Original*%
%TF.FileFunction,Legend,Top*%
%TF.FilePolarity,Positive*%
%FSLAX46Y46*%
G04 Gerber Fmt 4.6, Leading zero omitted, Abs format (unit mm)*
G04 Created by KiCad (PCBNEW 7.0.2) date 2024-01-28 17:58:16*
%MOMM*%
%LPD*%
G01*
G04 APERTURE LIST*
%ADD10C,0.150000*%
%ADD11C,0.127000*%
%ADD12C,0.200000*%
%ADD13C,0.120000*%
G04 APERTURE END LIST*
D10*
X104927380Y-116392857D02*
X104975000Y-116440476D01*
X104975000Y-116440476D02*
X105022619Y-116583333D01*
X105022619Y-116583333D02*
X105022619Y-116678571D01*
X105022619Y-116678571D02*
X104975000Y-116821428D01*
X104975000Y-116821428D02*
X104879761Y-116916666D01*
X104879761Y-116916666D02*
X104784523Y-116964285D01*
X104784523Y-116964285D02*
X104594047Y-117011904D01*
X104594047Y-117011904D02*
X104451190Y-117011904D01*
X104451190Y-117011904D02*
X104260714Y-116964285D01*
X104260714Y-116964285D02*
X104165476Y-116916666D01*
X104165476Y-116916666D02*
X104070238Y-116821428D01*
X104070238Y-116821428D02*
X104022619Y-116678571D01*
X104022619Y-116678571D02*
X104022619Y-116583333D01*
X104022619Y-116583333D02*
X104070238Y-116440476D01*
X104070238Y-116440476D02*
X104117857Y-116392857D01*
X105022619Y-115440476D02*
X105022619Y-116011904D01*
X105022619Y-115726190D02*
X104022619Y-115726190D01*
X104022619Y-115726190D02*
X104165476Y-115821428D01*
X104165476Y-115821428D02*
X104260714Y-115916666D01*
X104260714Y-115916666D02*
X104308333Y-116011904D01*
X104022619Y-115107142D02*
X104022619Y-114488095D01*
X104022619Y-114488095D02*
X104403571Y-114821428D01*
X104403571Y-114821428D02*
X104403571Y-114678571D01*
X104403571Y-114678571D02*
X104451190Y-114583333D01*
X104451190Y-114583333D02*
X104498809Y-114535714D01*
X104498809Y-114535714D02*
X104594047Y-114488095D01*
X104594047Y-114488095D02*
X104832142Y-114488095D01*
X104832142Y-114488095D02*
X104927380Y-114535714D01*
X104927380Y-114535714D02*
X104975000Y-114583333D01*
X104975000Y-114583333D02*
X105022619Y-114678571D01*
X105022619Y-114678571D02*
X105022619Y-114964285D01*
X105022619Y-114964285D02*
X104975000Y-115059523D01*
X104975000Y-115059523D02*
X104927380Y-115107142D01*
%TO.C,U2*%
X86604380Y-131869676D02*
X86604380Y-132387771D01*
X86604380Y-132387771D02*
X86634857Y-132448723D01*
X86634857Y-132448723D02*
X86665333Y-132479200D01*
X86665333Y-132479200D02*
X86726285Y-132509676D01*
X86726285Y-132509676D02*
X86848190Y-132509676D01*
X86848190Y-132509676D02*
X86909142Y-132479200D01*
X86909142Y-132479200D02*
X86939619Y-132448723D01*
X86939619Y-132448723D02*
X86970095Y-132387771D01*
X86970095Y-132387771D02*
X86970095Y-131869676D01*
X87244380Y-131930628D02*
X87274856Y-131900152D01*
X87274856Y-131900152D02*
X87335809Y-131869676D01*
X87335809Y-131869676D02*
X87488190Y-131869676D01*
X87488190Y-131869676D02*
X87549142Y-131900152D01*
X87549142Y-131900152D02*
X87579618Y-131930628D01*
X87579618Y-131930628D02*
X87610095Y-131991580D01*
X87610095Y-131991580D02*
X87610095Y-132052533D01*
X87610095Y-132052533D02*
X87579618Y-132143961D01*
X87579618Y-132143961D02*
X87213904Y-132509676D01*
X87213904Y-132509676D02*
X87610095Y-132509676D01*
%TO.C,Q2*%
X86264761Y-102157857D02*
X86169523Y-102110238D01*
X86169523Y-102110238D02*
X86074285Y-102015000D01*
X86074285Y-102015000D02*
X85931428Y-101872142D01*
X85931428Y-101872142D02*
X85836190Y-101824523D01*
X85836190Y-101824523D02*
X85740952Y-101824523D01*
X85788571Y-102062619D02*
X85693333Y-102015000D01*
X85693333Y-102015000D02*
X85598095Y-101919761D01*
X85598095Y-101919761D02*
X85550476Y-101729285D01*
X85550476Y-101729285D02*
X85550476Y-101395952D01*
X85550476Y-101395952D02*
X85598095Y-101205476D01*
X85598095Y-101205476D02*
X85693333Y-101110238D01*
X85693333Y-101110238D02*
X85788571Y-101062619D01*
X85788571Y-101062619D02*
X85979047Y-101062619D01*
X85979047Y-101062619D02*
X86074285Y-101110238D01*
X86074285Y-101110238D02*
X86169523Y-101205476D01*
X86169523Y-101205476D02*
X86217142Y-101395952D01*
X86217142Y-101395952D02*
X86217142Y-101729285D01*
X86217142Y-101729285D02*
X86169523Y-101919761D01*
X86169523Y-101919761D02*
X86074285Y-102015000D01*
X86074285Y-102015000D02*
X85979047Y-102062619D01*
X85979047Y-102062619D02*
X85788571Y-102062619D01*
X86598095Y-101157857D02*
X86645714Y-101110238D01*
X86645714Y-101110238D02*
X86740952Y-101062619D01*
X86740952Y-101062619D02*
X86979047Y-101062619D01*
X86979047Y-101062619D02*
X87074285Y-101110238D01*
X87074285Y-101110238D02*
X87121904Y-101157857D01*
X87121904Y-101157857D02*
X87169523Y-101253095D01*
X87169523Y-101253095D02*
X87169523Y-101348333D01*
X87169523Y-101348333D02*
X87121904Y-101491190D01*
X87121904Y-101491190D02*
X86550476Y-102062619D01*
X86550476Y-102062619D02*
X87169523Y-102062619D01*
%TO.C,D5*%
X107211905Y-119242619D02*
X107211905Y-118242619D01*
X107211905Y-118242619D02*
X107450000Y-118242619D01*
X107450000Y-118242619D02*
X107592857Y-118290238D01*
X107592857Y-118290238D02*
X107688095Y-118385476D01*
X107688095Y-118385476D02*
X107735714Y-118480714D01*
X107735714Y-118480714D02*
X107783333Y-118671190D01*
X107783333Y-118671190D02*
X107783333Y-118814047D01*
X107783333Y-118814047D02*
X107735714Y-119004523D01*
X107735714Y-119004523D02*
X107688095Y-119099761D01*
X107688095Y-119099761D02*
X107592857Y-119195000D01*
X107592857Y-119195000D02*
X107450000Y-119242619D01*
X107450000Y-119242619D02*
X107211905Y-119242619D01*
X108688095Y-118242619D02*
X108211905Y-118242619D01*
X108211905Y-118242619D02*
X108164286Y-118718809D01*
X108164286Y-118718809D02*
X108211905Y-118671190D01*
X108211905Y-118671190D02*
X108307143Y-118623571D01*
X108307143Y-118623571D02*
X108545238Y-118623571D01*
X108545238Y-118623571D02*
X108640476Y-118671190D01*
X108640476Y-118671190D02*
X108688095Y-118718809D01*
X108688095Y-118718809D02*
X108735714Y-118814047D01*
X108735714Y-118814047D02*
X108735714Y-119052142D01*
X108735714Y-119052142D02*
X108688095Y-119147380D01*
X108688095Y-119147380D02*
X108640476Y-119195000D01*
X108640476Y-119195000D02*
X108545238Y-119242619D01*
X108545238Y-119242619D02*
X108307143Y-119242619D01*
X108307143Y-119242619D02*
X108211905Y-119195000D01*
X108211905Y-119195000D02*
X108164286Y-119147380D01*
%TO.C,C15*%
X93537380Y-108885357D02*
X93585000Y-108932976D01*
X93585000Y-108932976D02*
X93632619Y-109075833D01*
X93632619Y-109075833D02*
X93632619Y-109171071D01*
X93632619Y-109171071D02*
X93585000Y-109313928D01*
X93585000Y-109313928D02*
X93489761Y-109409166D01*
X93489761Y-109409166D02*
X93394523Y-109456785D01*
X93394523Y-109456785D02*
X93204047Y-109504404D01*
X93204047Y-109504404D02*
X93061190Y-109504404D01*
X93061190Y-109504404D02*
X92870714Y-109456785D01*
X92870714Y-109456785D02*
X92775476Y-109409166D01*
X92775476Y-109409166D02*
X92680238Y-109313928D01*
X92680238Y-109313928D02*
X92632619Y-109171071D01*
X92632619Y-109171071D02*
X92632619Y-109075833D01*
X92632619Y-109075833D02*
X92680238Y-108932976D01*
X92680238Y-108932976D02*
X92727857Y-108885357D01*
X93632619Y-107932976D02*
X93632619Y-108504404D01*
X93632619Y-108218690D02*
X92632619Y-108218690D01*
X92632619Y-108218690D02*
X92775476Y-108313928D01*
X92775476Y-108313928D02*
X92870714Y-108409166D01*
X92870714Y-108409166D02*
X92918333Y-108504404D01*
X92632619Y-107028214D02*
X92632619Y-107504404D01*
X92632619Y-107504404D02*
X93108809Y-107552023D01*
X93108809Y-107552023D02*
X93061190Y-107504404D01*
X93061190Y-107504404D02*
X93013571Y-107409166D01*
X93013571Y-107409166D02*
X93013571Y-107171071D01*
X93013571Y-107171071D02*
X93061190Y-107075833D01*
X93061190Y-107075833D02*
X93108809Y-107028214D01*
X93108809Y-107028214D02*
X93204047Y-106980595D01*
X93204047Y-106980595D02*
X93442142Y-106980595D01*
X93442142Y-106980595D02*
X93537380Y-107028214D01*
X93537380Y-107028214D02*
X93585000Y-107075833D01*
X93585000Y-107075833D02*
X93632619Y-107171071D01*
X93632619Y-107171071D02*
X93632619Y-107409166D01*
X93632619Y-107409166D02*
X93585000Y-107504404D01*
X93585000Y-107504404D02*
X93537380Y-107552023D01*
%TO.C,R1*%
X86493333Y-125282619D02*
X86160000Y-124806428D01*
X85921905Y-125282619D02*
X85921905Y-124282619D01*
X85921905Y-124282619D02*
X86302857Y-124282619D01*
X86302857Y-124282619D02*
X86398095Y-124330238D01*
X86398095Y-124330238D02*
X86445714Y-124377857D01*
X86445714Y-124377857D02*
X86493333Y-124473095D01*
X86493333Y-124473095D02*
X86493333Y-124615952D01*
X86493333Y-124615952D02*
X86445714Y-124711190D01*
X86445714Y-124711190D02*
X86398095Y-124758809D01*
X86398095Y-124758809D02*
X86302857Y-124806428D01*
X86302857Y-124806428D02*
X85921905Y-124806428D01*
X87445714Y-125282619D02*
X86874286Y-125282619D01*
X87160000Y-125282619D02*
X87160000Y-124282619D01*
X87160000Y-124282619D02*
X87064762Y-124425476D01*
X87064762Y-124425476D02*
X86969524Y-124520714D01*
X86969524Y-124520714D02*
X86874286Y-124568333D01*
%TO.C,R2*%
X107783333Y-122472619D02*
X107450000Y-121996428D01*
X107211905Y-122472619D02*
X107211905Y-121472619D01*
X107211905Y-121472619D02*
X107592857Y-121472619D01*
X107592857Y-121472619D02*
X107688095Y-121520238D01*
X107688095Y-121520238D02*
X107735714Y-121567857D01*
X107735714Y-121567857D02*
X107783333Y-121663095D01*
X107783333Y-121663095D02*
X107783333Y-121805952D01*
X107783333Y-121805952D02*
X107735714Y-121901190D01*
X107735714Y-121901190D02*
X107688095Y-121948809D01*
X107688095Y-121948809D02*
X107592857Y-121996428D01*
X107592857Y-121996428D02*
X107211905Y-121996428D01*
X108164286Y-121567857D02*
X108211905Y-121520238D01*
X108211905Y-121520238D02*
X108307143Y-121472619D01*
X108307143Y-121472619D02*
X108545238Y-121472619D01*
X108545238Y-121472619D02*
X108640476Y-121520238D01*
X108640476Y-121520238D02*
X108688095Y-121567857D01*
X108688095Y-121567857D02*
X108735714Y-121663095D01*
X108735714Y-121663095D02*
X108735714Y-121758333D01*
X108735714Y-121758333D02*
X108688095Y-121901190D01*
X108688095Y-121901190D02*
X108116667Y-122472619D01*
X108116667Y-122472619D02*
X108735714Y-122472619D01*
%TO.C,C18*%
X83987380Y-104782857D02*
X84035000Y-104830476D01*
X84035000Y-104830476D02*
X84082619Y-104973333D01*
X84082619Y-104973333D02*
X84082619Y-105068571D01*
X84082619Y-105068571D02*
X84035000Y-105211428D01*
X84035000Y-105211428D02*
X83939761Y-105306666D01*
X83939761Y-105306666D02*
X83844523Y-105354285D01*
X83844523Y-105354285D02*
X83654047Y-105401904D01*
X83654047Y-105401904D02*
X83511190Y-105401904D01*
X83511190Y-105401904D02*
X83320714Y-105354285D01*
X83320714Y-105354285D02*
X83225476Y-105306666D01*
X83225476Y-105306666D02*
X83130238Y-105211428D01*
X83130238Y-105211428D02*
X83082619Y-105068571D01*
X83082619Y-105068571D02*
X83082619Y-104973333D01*
X83082619Y-104973333D02*
X83130238Y-104830476D01*
X83130238Y-104830476D02*
X83177857Y-104782857D01*
X84082619Y-103830476D02*
X84082619Y-104401904D01*
X84082619Y-104116190D02*
X83082619Y-104116190D01*
X83082619Y-104116190D02*
X83225476Y-104211428D01*
X83225476Y-104211428D02*
X83320714Y-104306666D01*
X83320714Y-104306666D02*
X83368333Y-104401904D01*
X83511190Y-103259047D02*
X83463571Y-103354285D01*
X83463571Y-103354285D02*
X83415952Y-103401904D01*
X83415952Y-103401904D02*
X83320714Y-103449523D01*
X83320714Y-103449523D02*
X83273095Y-103449523D01*
X83273095Y-103449523D02*
X83177857Y-103401904D01*
X83177857Y-103401904D02*
X83130238Y-103354285D01*
X83130238Y-103354285D02*
X83082619Y-103259047D01*
X83082619Y-103259047D02*
X83082619Y-103068571D01*
X83082619Y-103068571D02*
X83130238Y-102973333D01*
X83130238Y-102973333D02*
X83177857Y-102925714D01*
X83177857Y-102925714D02*
X83273095Y-102878095D01*
X83273095Y-102878095D02*
X83320714Y-102878095D01*
X83320714Y-102878095D02*
X83415952Y-102925714D01*
X83415952Y-102925714D02*
X83463571Y-102973333D01*
X83463571Y-102973333D02*
X83511190Y-103068571D01*
X83511190Y-103068571D02*
X83511190Y-103259047D01*
X83511190Y-103259047D02*
X83558809Y-103354285D01*
X83558809Y-103354285D02*
X83606428Y-103401904D01*
X83606428Y-103401904D02*
X83701666Y-103449523D01*
X83701666Y-103449523D02*
X83892142Y-103449523D01*
X83892142Y-103449523D02*
X83987380Y-103401904D01*
X83987380Y-103401904D02*
X84035000Y-103354285D01*
X84035000Y-103354285D02*
X84082619Y-103259047D01*
X84082619Y-103259047D02*
X84082619Y-103068571D01*
X84082619Y-103068571D02*
X84035000Y-102973333D01*
X84035000Y-102973333D02*
X83987380Y-102925714D01*
X83987380Y-102925714D02*
X83892142Y-102878095D01*
X83892142Y-102878095D02*
X83701666Y-102878095D01*
X83701666Y-102878095D02*
X83606428Y-102925714D01*
X83606428Y-102925714D02*
X83558809Y-102973333D01*
X83558809Y-102973333D02*
X83511190Y-103068571D01*
%TO.C,C21*%
X101717380Y-108885357D02*
X101765000Y-108932976D01*
X101765000Y-108932976D02*
X101812619Y-109075833D01*
X101812619Y-109075833D02*
X101812619Y-109171071D01*
X101812619Y-109171071D02*
X101765000Y-109313928D01*
X101765000Y-109313928D02*
X101669761Y-109409166D01*
X101669761Y-109409166D02*
X101574523Y-109456785D01*
X101574523Y-109456785D02*
X101384047Y-109504404D01*
X101384047Y-109504404D02*
X101241190Y-109504404D01*
X101241190Y-109504404D02*
X101050714Y-109456785D01*
X101050714Y-109456785D02*
X100955476Y-109409166D01*
X100955476Y-109409166D02*
X100860238Y-109313928D01*
X100860238Y-109313928D02*
X100812619Y-109171071D01*
X100812619Y-109171071D02*
X100812619Y-109075833D01*
X100812619Y-109075833D02*
X100860238Y-108932976D01*
X100860238Y-108932976D02*
X100907857Y-108885357D01*
X100907857Y-108504404D02*
X100860238Y-108456785D01*
X100860238Y-108456785D02*
X100812619Y-108361547D01*
X100812619Y-108361547D02*
X100812619Y-108123452D01*
X100812619Y-108123452D02*
X100860238Y-108028214D01*
X100860238Y-108028214D02*
X100907857Y-107980595D01*
X100907857Y-107980595D02*
X101003095Y-107932976D01*
X101003095Y-107932976D02*
X101098333Y-107932976D01*
X101098333Y-107932976D02*
X101241190Y-107980595D01*
X101241190Y-107980595D02*
X101812619Y-108552023D01*
X101812619Y-108552023D02*
X101812619Y-107932976D01*
X101812619Y-106980595D02*
X101812619Y-107552023D01*
X101812619Y-107266309D02*
X100812619Y-107266309D01*
X100812619Y-107266309D02*
X100955476Y-107361547D01*
X100955476Y-107361547D02*
X101050714Y-107456785D01*
X101050714Y-107456785D02*
X101098333Y-107552023D01*
%TO.C,C12*%
X104977380Y-120022857D02*
X105025000Y-120070476D01*
X105025000Y-120070476D02*
X105072619Y-120213333D01*
X105072619Y-120213333D02*
X105072619Y-120308571D01*
X105072619Y-120308571D02*
X105025000Y-120451428D01*
X105025000Y-120451428D02*
X104929761Y-120546666D01*
X104929761Y-120546666D02*
X104834523Y-120594285D01*
X104834523Y-120594285D02*
X104644047Y-120641904D01*
X104644047Y-120641904D02*
X104501190Y-120641904D01*
X104501190Y-120641904D02*
X104310714Y-120594285D01*
X104310714Y-120594285D02*
X104215476Y-120546666D01*
X104215476Y-120546666D02*
X104120238Y-120451428D01*
X104120238Y-120451428D02*
X104072619Y-120308571D01*
X104072619Y-120308571D02*
X104072619Y-120213333D01*
X104072619Y-120213333D02*
X104120238Y-120070476D01*
X104120238Y-120070476D02*
X104167857Y-120022857D01*
X105072619Y-119070476D02*
X105072619Y-119641904D01*
X105072619Y-119356190D02*
X104072619Y-119356190D01*
X104072619Y-119356190D02*
X104215476Y-119451428D01*
X104215476Y-119451428D02*
X104310714Y-119546666D01*
X104310714Y-119546666D02*
X104358333Y-119641904D01*
X104167857Y-118689523D02*
X104120238Y-118641904D01*
X104120238Y-118641904D02*
X104072619Y-118546666D01*
X104072619Y-118546666D02*
X104072619Y-118308571D01*
X104072619Y-118308571D02*
X104120238Y-118213333D01*
X104120238Y-118213333D02*
X104167857Y-118165714D01*
X104167857Y-118165714D02*
X104263095Y-118118095D01*
X104263095Y-118118095D02*
X104358333Y-118118095D01*
X104358333Y-118118095D02*
X104501190Y-118165714D01*
X104501190Y-118165714D02*
X105072619Y-118737142D01*
X105072619Y-118737142D02*
X105072619Y-118118095D01*
%TO.C,J1*%
X92176666Y-127002619D02*
X92176666Y-127716904D01*
X92176666Y-127716904D02*
X92129047Y-127859761D01*
X92129047Y-127859761D02*
X92033809Y-127955000D01*
X92033809Y-127955000D02*
X91890952Y-128002619D01*
X91890952Y-128002619D02*
X91795714Y-128002619D01*
X93176666Y-128002619D02*
X92605238Y-128002619D01*
X92890952Y-128002619D02*
X92890952Y-127002619D01*
X92890952Y-127002619D02*
X92795714Y-127145476D01*
X92795714Y-127145476D02*
X92700476Y-127240714D01*
X92700476Y-127240714D02*
X92605238Y-127288333D01*
%TO.C,J2*%
X104800119Y-127333333D02*
X105514404Y-127333333D01*
X105514404Y-127333333D02*
X105657261Y-127380952D01*
X105657261Y-127380952D02*
X105752500Y-127476190D01*
X105752500Y-127476190D02*
X105800119Y-127619047D01*
X105800119Y-127619047D02*
X105800119Y-127714285D01*
X104895357Y-126904761D02*
X104847738Y-126857142D01*
X104847738Y-126857142D02*
X104800119Y-126761904D01*
X104800119Y-126761904D02*
X104800119Y-126523809D01*
X104800119Y-126523809D02*
X104847738Y-126428571D01*
X104847738Y-126428571D02*
X104895357Y-126380952D01*
X104895357Y-126380952D02*
X104990595Y-126333333D01*
X104990595Y-126333333D02*
X105085833Y-126333333D01*
X105085833Y-126333333D02*
X105228690Y-126380952D01*
X105228690Y-126380952D02*
X105800119Y-126952380D01*
X105800119Y-126952380D02*
X105800119Y-126333333D01*
%TO.C,R11*%
X85717142Y-107242619D02*
X85383809Y-106766428D01*
X85145714Y-107242619D02*
X85145714Y-106242619D01*
X85145714Y-106242619D02*
X85526666Y-106242619D01*
X85526666Y-106242619D02*
X85621904Y-106290238D01*
X85621904Y-106290238D02*
X85669523Y-106337857D01*
X85669523Y-106337857D02*
X85717142Y-106433095D01*
X85717142Y-106433095D02*
X85717142Y-106575952D01*
X85717142Y-106575952D02*
X85669523Y-106671190D01*
X85669523Y-106671190D02*
X85621904Y-106718809D01*
X85621904Y-106718809D02*
X85526666Y-106766428D01*
X85526666Y-106766428D02*
X85145714Y-106766428D01*
X86669523Y-107242619D02*
X86098095Y-107242619D01*
X86383809Y-107242619D02*
X86383809Y-106242619D01*
X86383809Y-106242619D02*
X86288571Y-106385476D01*
X86288571Y-106385476D02*
X86193333Y-106480714D01*
X86193333Y-106480714D02*
X86098095Y-106528333D01*
X87621904Y-107242619D02*
X87050476Y-107242619D01*
X87336190Y-107242619D02*
X87336190Y-106242619D01*
X87336190Y-106242619D02*
X87240952Y-106385476D01*
X87240952Y-106385476D02*
X87145714Y-106480714D01*
X87145714Y-106480714D02*
X87050476Y-106528333D01*
%TO.C,D3*%
X101761905Y-122982619D02*
X101761905Y-121982619D01*
X101761905Y-121982619D02*
X102000000Y-121982619D01*
X102000000Y-121982619D02*
X102142857Y-122030238D01*
X102142857Y-122030238D02*
X102238095Y-122125476D01*
X102238095Y-122125476D02*
X102285714Y-122220714D01*
X102285714Y-122220714D02*
X102333333Y-122411190D01*
X102333333Y-122411190D02*
X102333333Y-122554047D01*
X102333333Y-122554047D02*
X102285714Y-122744523D01*
X102285714Y-122744523D02*
X102238095Y-122839761D01*
X102238095Y-122839761D02*
X102142857Y-122935000D01*
X102142857Y-122935000D02*
X102000000Y-122982619D01*
X102000000Y-122982619D02*
X101761905Y-122982619D01*
X102666667Y-121982619D02*
X103285714Y-121982619D01*
X103285714Y-121982619D02*
X102952381Y-122363571D01*
X102952381Y-122363571D02*
X103095238Y-122363571D01*
X103095238Y-122363571D02*
X103190476Y-122411190D01*
X103190476Y-122411190D02*
X103238095Y-122458809D01*
X103238095Y-122458809D02*
X103285714Y-122554047D01*
X103285714Y-122554047D02*
X103285714Y-122792142D01*
X103285714Y-122792142D02*
X103238095Y-122887380D01*
X103238095Y-122887380D02*
X103190476Y-122935000D01*
X103190476Y-122935000D02*
X103095238Y-122982619D01*
X103095238Y-122982619D02*
X102809524Y-122982619D01*
X102809524Y-122982619D02*
X102714286Y-122935000D01*
X102714286Y-122935000D02*
X102666667Y-122887380D01*
%TO.C,R9*%
X90360833Y-125282619D02*
X90027500Y-124806428D01*
X89789405Y-125282619D02*
X89789405Y-124282619D01*
X89789405Y-124282619D02*
X90170357Y-124282619D01*
X90170357Y-124282619D02*
X90265595Y-124330238D01*
X90265595Y-124330238D02*
X90313214Y-124377857D01*
X90313214Y-124377857D02*
X90360833Y-124473095D01*
X90360833Y-124473095D02*
X90360833Y-124615952D01*
X90360833Y-124615952D02*
X90313214Y-124711190D01*
X90313214Y-124711190D02*
X90265595Y-124758809D01*
X90265595Y-124758809D02*
X90170357Y-124806428D01*
X90170357Y-124806428D02*
X89789405Y-124806428D01*
X90837024Y-125282619D02*
X91027500Y-125282619D01*
X91027500Y-125282619D02*
X91122738Y-125235000D01*
X91122738Y-125235000D02*
X91170357Y-125187380D01*
X91170357Y-125187380D02*
X91265595Y-125044523D01*
X91265595Y-125044523D02*
X91313214Y-124854047D01*
X91313214Y-124854047D02*
X91313214Y-124473095D01*
X91313214Y-124473095D02*
X91265595Y-124377857D01*
X91265595Y-124377857D02*
X91217976Y-124330238D01*
X91217976Y-124330238D02*
X91122738Y-124282619D01*
X91122738Y-124282619D02*
X90932262Y-124282619D01*
X90932262Y-124282619D02*
X90837024Y-124330238D01*
X90837024Y-124330238D02*
X90789405Y-124377857D01*
X90789405Y-124377857D02*
X90741786Y-124473095D01*
X90741786Y-124473095D02*
X90741786Y-124711190D01*
X90741786Y-124711190D02*
X90789405Y-124806428D01*
X90789405Y-124806428D02*
X90837024Y-124854047D01*
X90837024Y-124854047D02*
X90932262Y-124901666D01*
X90932262Y-124901666D02*
X91122738Y-124901666D01*
X91122738Y-124901666D02*
X91217976Y-124854047D01*
X91217976Y-124854047D02*
X91265595Y-124806428D01*
X91265595Y-124806428D02*
X91313214Y-124711190D01*
%TO.C,C2*%
X101797380Y-119400399D02*
X101845000Y-119448018D01*
X101845000Y-119448018D02*
X101892619Y-119590875D01*
X101892619Y-119590875D02*
X101892619Y-119686113D01*
X101892619Y-119686113D02*
X101845000Y-119828970D01*
X101845000Y-119828970D02*
X101749761Y-119924208D01*
X101749761Y-119924208D02*
X101654523Y-119971827D01*
X101654523Y-119971827D02*
X101464047Y-120019446D01*
X101464047Y-120019446D02*
X101321190Y-120019446D01*
X101321190Y-120019446D02*
X101130714Y-119971827D01*
X101130714Y-119971827D02*
X101035476Y-119924208D01*
X101035476Y-119924208D02*
X100940238Y-119828970D01*
X100940238Y-119828970D02*
X100892619Y-119686113D01*
X100892619Y-119686113D02*
X100892619Y-119590875D01*
X100892619Y-119590875D02*
X100940238Y-119448018D01*
X100940238Y-119448018D02*
X100987857Y-119400399D01*
X100987857Y-119019446D02*
X100940238Y-118971827D01*
X100940238Y-118971827D02*
X100892619Y-118876589D01*
X100892619Y-118876589D02*
X100892619Y-118638494D01*
X100892619Y-118638494D02*
X100940238Y-118543256D01*
X100940238Y-118543256D02*
X100987857Y-118495637D01*
X100987857Y-118495637D02*
X101083095Y-118448018D01*
X101083095Y-118448018D02*
X101178333Y-118448018D01*
X101178333Y-118448018D02*
X101321190Y-118495637D01*
X101321190Y-118495637D02*
X101892619Y-119067065D01*
X101892619Y-119067065D02*
X101892619Y-118448018D01*
%TO.C,C14*%
X101717380Y-112765357D02*
X101765000Y-112812976D01*
X101765000Y-112812976D02*
X101812619Y-112955833D01*
X101812619Y-112955833D02*
X101812619Y-113051071D01*
X101812619Y-113051071D02*
X101765000Y-113193928D01*
X101765000Y-113193928D02*
X101669761Y-113289166D01*
X101669761Y-113289166D02*
X101574523Y-113336785D01*
X101574523Y-113336785D02*
X101384047Y-113384404D01*
X101384047Y-113384404D02*
X101241190Y-113384404D01*
X101241190Y-113384404D02*
X101050714Y-113336785D01*
X101050714Y-113336785D02*
X100955476Y-113289166D01*
X100955476Y-113289166D02*
X100860238Y-113193928D01*
X100860238Y-113193928D02*
X100812619Y-113051071D01*
X100812619Y-113051071D02*
X100812619Y-112955833D01*
X100812619Y-112955833D02*
X100860238Y-112812976D01*
X100860238Y-112812976D02*
X100907857Y-112765357D01*
X101812619Y-111812976D02*
X101812619Y-112384404D01*
X101812619Y-112098690D02*
X100812619Y-112098690D01*
X100812619Y-112098690D02*
X100955476Y-112193928D01*
X100955476Y-112193928D02*
X101050714Y-112289166D01*
X101050714Y-112289166D02*
X101098333Y-112384404D01*
X101145952Y-110955833D02*
X101812619Y-110955833D01*
X100765000Y-111193928D02*
X101479285Y-111432023D01*
X101479285Y-111432023D02*
X101479285Y-110812976D01*
%TO.C,C19*%
X98377380Y-109000357D02*
X98425000Y-109047976D01*
X98425000Y-109047976D02*
X98472619Y-109190833D01*
X98472619Y-109190833D02*
X98472619Y-109286071D01*
X98472619Y-109286071D02*
X98425000Y-109428928D01*
X98425000Y-109428928D02*
X98329761Y-109524166D01*
X98329761Y-109524166D02*
X98234523Y-109571785D01*
X98234523Y-109571785D02*
X98044047Y-109619404D01*
X98044047Y-109619404D02*
X97901190Y-109619404D01*
X97901190Y-109619404D02*
X97710714Y-109571785D01*
X97710714Y-109571785D02*
X97615476Y-109524166D01*
X97615476Y-109524166D02*
X97520238Y-109428928D01*
X97520238Y-109428928D02*
X97472619Y-109286071D01*
X97472619Y-109286071D02*
X97472619Y-109190833D01*
X97472619Y-109190833D02*
X97520238Y-109047976D01*
X97520238Y-109047976D02*
X97567857Y-109000357D01*
X98472619Y-108047976D02*
X98472619Y-108619404D01*
X98472619Y-108333690D02*
X97472619Y-108333690D01*
X97472619Y-108333690D02*
X97615476Y-108428928D01*
X97615476Y-108428928D02*
X97710714Y-108524166D01*
X97710714Y-108524166D02*
X97758333Y-108619404D01*
X98472619Y-107571785D02*
X98472619Y-107381309D01*
X98472619Y-107381309D02*
X98425000Y-107286071D01*
X98425000Y-107286071D02*
X98377380Y-107238452D01*
X98377380Y-107238452D02*
X98234523Y-107143214D01*
X98234523Y-107143214D02*
X98044047Y-107095595D01*
X98044047Y-107095595D02*
X97663095Y-107095595D01*
X97663095Y-107095595D02*
X97567857Y-107143214D01*
X97567857Y-107143214D02*
X97520238Y-107190833D01*
X97520238Y-107190833D02*
X97472619Y-107286071D01*
X97472619Y-107286071D02*
X97472619Y-107476547D01*
X97472619Y-107476547D02*
X97520238Y-107571785D01*
X97520238Y-107571785D02*
X97567857Y-107619404D01*
X97567857Y-107619404D02*
X97663095Y-107667023D01*
X97663095Y-107667023D02*
X97901190Y-107667023D01*
X97901190Y-107667023D02*
X97996428Y-107619404D01*
X97996428Y-107619404D02*
X98044047Y-107571785D01*
X98044047Y-107571785D02*
X98091666Y-107476547D01*
X98091666Y-107476547D02*
X98091666Y-107286071D01*
X98091666Y-107286071D02*
X98044047Y-107190833D01*
X98044047Y-107190833D02*
X97996428Y-107143214D01*
X97996428Y-107143214D02*
X97901190Y-107095595D01*
%TO.C,C17*%
X101827380Y-116620357D02*
X101875000Y-116667976D01*
X101875000Y-116667976D02*
X101922619Y-116810833D01*
X101922619Y-116810833D02*
X101922619Y-116906071D01*
X101922619Y-116906071D02*
X101875000Y-117048928D01*
X101875000Y-117048928D02*
X101779761Y-117144166D01*
X101779761Y-117144166D02*
X101684523Y-117191785D01*
X101684523Y-117191785D02*
X101494047Y-117239404D01*
X101494047Y-117239404D02*
X101351190Y-117239404D01*
X101351190Y-117239404D02*
X101160714Y-117191785D01*
X101160714Y-117191785D02*
X101065476Y-117144166D01*
X101065476Y-117144166D02*
X100970238Y-117048928D01*
X100970238Y-117048928D02*
X100922619Y-116906071D01*
X100922619Y-116906071D02*
X100922619Y-116810833D01*
X100922619Y-116810833D02*
X100970238Y-116667976D01*
X100970238Y-116667976D02*
X101017857Y-116620357D01*
X101922619Y-115667976D02*
X101922619Y-116239404D01*
X101922619Y-115953690D02*
X100922619Y-115953690D01*
X100922619Y-115953690D02*
X101065476Y-116048928D01*
X101065476Y-116048928D02*
X101160714Y-116144166D01*
X101160714Y-116144166D02*
X101208333Y-116239404D01*
X100922619Y-115334642D02*
X100922619Y-114667976D01*
X100922619Y-114667976D02*
X101922619Y-115096547D01*
%TO.C,C6*%
X91373333Y-130517380D02*
X91325714Y-130565000D01*
X91325714Y-130565000D02*
X91182857Y-130612619D01*
X91182857Y-130612619D02*
X91087619Y-130612619D01*
X91087619Y-130612619D02*
X90944762Y-130565000D01*
X90944762Y-130565000D02*
X90849524Y-130469761D01*
X90849524Y-130469761D02*
X90801905Y-130374523D01*
X90801905Y-130374523D02*
X90754286Y-130184047D01*
X90754286Y-130184047D02*
X90754286Y-130041190D01*
X90754286Y-130041190D02*
X90801905Y-129850714D01*
X90801905Y-129850714D02*
X90849524Y-129755476D01*
X90849524Y-129755476D02*
X90944762Y-129660238D01*
X90944762Y-129660238D02*
X91087619Y-129612619D01*
X91087619Y-129612619D02*
X91182857Y-129612619D01*
X91182857Y-129612619D02*
X91325714Y-129660238D01*
X91325714Y-129660238D02*
X91373333Y-129707857D01*
X92230476Y-129612619D02*
X92040000Y-129612619D01*
X92040000Y-129612619D02*
X91944762Y-129660238D01*
X91944762Y-129660238D02*
X91897143Y-129707857D01*
X91897143Y-129707857D02*
X91801905Y-129850714D01*
X91801905Y-129850714D02*
X91754286Y-130041190D01*
X91754286Y-130041190D02*
X91754286Y-130422142D01*
X91754286Y-130422142D02*
X91801905Y-130517380D01*
X91801905Y-130517380D02*
X91849524Y-130565000D01*
X91849524Y-130565000D02*
X91944762Y-130612619D01*
X91944762Y-130612619D02*
X92135238Y-130612619D01*
X92135238Y-130612619D02*
X92230476Y-130565000D01*
X92230476Y-130565000D02*
X92278095Y-130517380D01*
X92278095Y-130517380D02*
X92325714Y-130422142D01*
X92325714Y-130422142D02*
X92325714Y-130184047D01*
X92325714Y-130184047D02*
X92278095Y-130088809D01*
X92278095Y-130088809D02*
X92230476Y-130041190D01*
X92230476Y-130041190D02*
X92135238Y-129993571D01*
X92135238Y-129993571D02*
X91944762Y-129993571D01*
X91944762Y-129993571D02*
X91849524Y-130041190D01*
X91849524Y-130041190D02*
X91801905Y-130088809D01*
X91801905Y-130088809D02*
X91754286Y-130184047D01*
%TO.C,C16*%
X98397380Y-116605357D02*
X98445000Y-116652976D01*
X98445000Y-116652976D02*
X98492619Y-116795833D01*
X98492619Y-116795833D02*
X98492619Y-116891071D01*
X98492619Y-116891071D02*
X98445000Y-117033928D01*
X98445000Y-117033928D02*
X98349761Y-117129166D01*
X98349761Y-117129166D02*
X98254523Y-117176785D01*
X98254523Y-117176785D02*
X98064047Y-117224404D01*
X98064047Y-117224404D02*
X97921190Y-117224404D01*
X97921190Y-117224404D02*
X97730714Y-117176785D01*
X97730714Y-117176785D02*
X97635476Y-117129166D01*
X97635476Y-117129166D02*
X97540238Y-117033928D01*
X97540238Y-117033928D02*
X97492619Y-116891071D01*
X97492619Y-116891071D02*
X97492619Y-116795833D01*
X97492619Y-116795833D02*
X97540238Y-116652976D01*
X97540238Y-116652976D02*
X97587857Y-116605357D01*
X98492619Y-115652976D02*
X98492619Y-116224404D01*
X98492619Y-115938690D02*
X97492619Y-115938690D01*
X97492619Y-115938690D02*
X97635476Y-116033928D01*
X97635476Y-116033928D02*
X97730714Y-116129166D01*
X97730714Y-116129166D02*
X97778333Y-116224404D01*
X97492619Y-114795833D02*
X97492619Y-114986309D01*
X97492619Y-114986309D02*
X97540238Y-115081547D01*
X97540238Y-115081547D02*
X97587857Y-115129166D01*
X97587857Y-115129166D02*
X97730714Y-115224404D01*
X97730714Y-115224404D02*
X97921190Y-115272023D01*
X97921190Y-115272023D02*
X98302142Y-115272023D01*
X98302142Y-115272023D02*
X98397380Y-115224404D01*
X98397380Y-115224404D02*
X98445000Y-115176785D01*
X98445000Y-115176785D02*
X98492619Y-115081547D01*
X98492619Y-115081547D02*
X98492619Y-114891071D01*
X98492619Y-114891071D02*
X98445000Y-114795833D01*
X98445000Y-114795833D02*
X98397380Y-114748214D01*
X98397380Y-114748214D02*
X98302142Y-114700595D01*
X98302142Y-114700595D02*
X98064047Y-114700595D01*
X98064047Y-114700595D02*
X97968809Y-114748214D01*
X97968809Y-114748214D02*
X97921190Y-114795833D01*
X97921190Y-114795833D02*
X97873571Y-114891071D01*
X97873571Y-114891071D02*
X97873571Y-115081547D01*
X97873571Y-115081547D02*
X97921190Y-115176785D01*
X97921190Y-115176785D02*
X97968809Y-115224404D01*
X97968809Y-115224404D02*
X98064047Y-115272023D01*
%TO.C,R8*%
X86493333Y-128662619D02*
X86160000Y-128186428D01*
X85921905Y-128662619D02*
X85921905Y-127662619D01*
X85921905Y-127662619D02*
X86302857Y-127662619D01*
X86302857Y-127662619D02*
X86398095Y-127710238D01*
X86398095Y-127710238D02*
X86445714Y-127757857D01*
X86445714Y-127757857D02*
X86493333Y-127853095D01*
X86493333Y-127853095D02*
X86493333Y-127995952D01*
X86493333Y-127995952D02*
X86445714Y-128091190D01*
X86445714Y-128091190D02*
X86398095Y-128138809D01*
X86398095Y-128138809D02*
X86302857Y-128186428D01*
X86302857Y-128186428D02*
X85921905Y-128186428D01*
X87064762Y-128091190D02*
X86969524Y-128043571D01*
X86969524Y-128043571D02*
X86921905Y-127995952D01*
X86921905Y-127995952D02*
X86874286Y-127900714D01*
X86874286Y-127900714D02*
X86874286Y-127853095D01*
X86874286Y-127853095D02*
X86921905Y-127757857D01*
X86921905Y-127757857D02*
X86969524Y-127710238D01*
X86969524Y-127710238D02*
X87064762Y-127662619D01*
X87064762Y-127662619D02*
X87255238Y-127662619D01*
X87255238Y-127662619D02*
X87350476Y-127710238D01*
X87350476Y-127710238D02*
X87398095Y-127757857D01*
X87398095Y-127757857D02*
X87445714Y-127853095D01*
X87445714Y-127853095D02*
X87445714Y-127900714D01*
X87445714Y-127900714D02*
X87398095Y-127995952D01*
X87398095Y-127995952D02*
X87350476Y-128043571D01*
X87350476Y-128043571D02*
X87255238Y-128091190D01*
X87255238Y-128091190D02*
X87064762Y-128091190D01*
X87064762Y-128091190D02*
X86969524Y-128138809D01*
X86969524Y-128138809D02*
X86921905Y-128186428D01*
X86921905Y-128186428D02*
X86874286Y-128281666D01*
X86874286Y-128281666D02*
X86874286Y-128472142D01*
X86874286Y-128472142D02*
X86921905Y-128567380D01*
X86921905Y-128567380D02*
X86969524Y-128615000D01*
X86969524Y-128615000D02*
X87064762Y-128662619D01*
X87064762Y-128662619D02*
X87255238Y-128662619D01*
X87255238Y-128662619D02*
X87350476Y-128615000D01*
X87350476Y-128615000D02*
X87398095Y-128567380D01*
X87398095Y-128567380D02*
X87445714Y-128472142D01*
X87445714Y-128472142D02*
X87445714Y-128281666D01*
X87445714Y-128281666D02*
X87398095Y-128186428D01*
X87398095Y-128186428D02*
X87350476Y-128138809D01*
X87350476Y-128138809D02*
X87255238Y-128091190D01*
%TO.C,J4*%
X89336666Y-100862619D02*
X89336666Y-101576904D01*
X89336666Y-101576904D02*
X89289047Y-101719761D01*
X89289047Y-101719761D02*
X89193809Y-101815000D01*
X89193809Y-101815000D02*
X89050952Y-101862619D01*
X89050952Y-101862619D02*
X88955714Y-101862619D01*
X90241428Y-101195952D02*
X90241428Y-101862619D01*
X90003333Y-100815000D02*
X89765238Y-101529285D01*
X89765238Y-101529285D02*
X90384285Y-101529285D01*
%TO.C,D6*%
X107211905Y-105742619D02*
X107211905Y-104742619D01*
X107211905Y-104742619D02*
X107450000Y-104742619D01*
X107450000Y-104742619D02*
X107592857Y-104790238D01*
X107592857Y-104790238D02*
X107688095Y-104885476D01*
X107688095Y-104885476D02*
X107735714Y-104980714D01*
X107735714Y-104980714D02*
X107783333Y-105171190D01*
X107783333Y-105171190D02*
X107783333Y-105314047D01*
X107783333Y-105314047D02*
X107735714Y-105504523D01*
X107735714Y-105504523D02*
X107688095Y-105599761D01*
X107688095Y-105599761D02*
X107592857Y-105695000D01*
X107592857Y-105695000D02*
X107450000Y-105742619D01*
X107450000Y-105742619D02*
X107211905Y-105742619D01*
X108640476Y-104742619D02*
X108450000Y-104742619D01*
X108450000Y-104742619D02*
X108354762Y-104790238D01*
X108354762Y-104790238D02*
X108307143Y-104837857D01*
X108307143Y-104837857D02*
X108211905Y-104980714D01*
X108211905Y-104980714D02*
X108164286Y-105171190D01*
X108164286Y-105171190D02*
X108164286Y-105552142D01*
X108164286Y-105552142D02*
X108211905Y-105647380D01*
X108211905Y-105647380D02*
X108259524Y-105695000D01*
X108259524Y-105695000D02*
X108354762Y-105742619D01*
X108354762Y-105742619D02*
X108545238Y-105742619D01*
X108545238Y-105742619D02*
X108640476Y-105695000D01*
X108640476Y-105695000D02*
X108688095Y-105647380D01*
X108688095Y-105647380D02*
X108735714Y-105552142D01*
X108735714Y-105552142D02*
X108735714Y-105314047D01*
X108735714Y-105314047D02*
X108688095Y-105218809D01*
X108688095Y-105218809D02*
X108640476Y-105171190D01*
X108640476Y-105171190D02*
X108545238Y-105123571D01*
X108545238Y-105123571D02*
X108354762Y-105123571D01*
X108354762Y-105123571D02*
X108259524Y-105171190D01*
X108259524Y-105171190D02*
X108211905Y-105218809D01*
X108211905Y-105218809D02*
X108164286Y-105314047D01*
%TO.C,C3*%
X84047380Y-114579166D02*
X84095000Y-114626785D01*
X84095000Y-114626785D02*
X84142619Y-114769642D01*
X84142619Y-114769642D02*
X84142619Y-114864880D01*
X84142619Y-114864880D02*
X84095000Y-115007737D01*
X84095000Y-115007737D02*
X83999761Y-115102975D01*
X83999761Y-115102975D02*
X83904523Y-115150594D01*
X83904523Y-115150594D02*
X83714047Y-115198213D01*
X83714047Y-115198213D02*
X83571190Y-115198213D01*
X83571190Y-115198213D02*
X83380714Y-115150594D01*
X83380714Y-115150594D02*
X83285476Y-115102975D01*
X83285476Y-115102975D02*
X83190238Y-115007737D01*
X83190238Y-115007737D02*
X83142619Y-114864880D01*
X83142619Y-114864880D02*
X83142619Y-114769642D01*
X83142619Y-114769642D02*
X83190238Y-114626785D01*
X83190238Y-114626785D02*
X83237857Y-114579166D01*
X83142619Y-114245832D02*
X83142619Y-113626785D01*
X83142619Y-113626785D02*
X83523571Y-113960118D01*
X83523571Y-113960118D02*
X83523571Y-113817261D01*
X83523571Y-113817261D02*
X83571190Y-113722023D01*
X83571190Y-113722023D02*
X83618809Y-113674404D01*
X83618809Y-113674404D02*
X83714047Y-113626785D01*
X83714047Y-113626785D02*
X83952142Y-113626785D01*
X83952142Y-113626785D02*
X84047380Y-113674404D01*
X84047380Y-113674404D02*
X84095000Y-113722023D01*
X84095000Y-113722023D02*
X84142619Y-113817261D01*
X84142619Y-113817261D02*
X84142619Y-114102975D01*
X84142619Y-114102975D02*
X84095000Y-114198213D01*
X84095000Y-114198213D02*
X84047380Y-114245832D01*
%TO.C,C23*%
X104967380Y-108885357D02*
X105015000Y-108932976D01*
X105015000Y-108932976D02*
X105062619Y-109075833D01*
X105062619Y-109075833D02*
X105062619Y-109171071D01*
X105062619Y-109171071D02*
X105015000Y-109313928D01*
X105015000Y-109313928D02*
X104919761Y-109409166D01*
X104919761Y-109409166D02*
X104824523Y-109456785D01*
X104824523Y-109456785D02*
X104634047Y-109504404D01*
X104634047Y-109504404D02*
X104491190Y-109504404D01*
X104491190Y-109504404D02*
X104300714Y-109456785D01*
X104300714Y-109456785D02*
X104205476Y-109409166D01*
X104205476Y-109409166D02*
X104110238Y-109313928D01*
X104110238Y-109313928D02*
X104062619Y-109171071D01*
X104062619Y-109171071D02*
X104062619Y-109075833D01*
X104062619Y-109075833D02*
X104110238Y-108932976D01*
X104110238Y-108932976D02*
X104157857Y-108885357D01*
X104157857Y-108504404D02*
X104110238Y-108456785D01*
X104110238Y-108456785D02*
X104062619Y-108361547D01*
X104062619Y-108361547D02*
X104062619Y-108123452D01*
X104062619Y-108123452D02*
X104110238Y-108028214D01*
X104110238Y-108028214D02*
X104157857Y-107980595D01*
X104157857Y-107980595D02*
X104253095Y-107932976D01*
X104253095Y-107932976D02*
X104348333Y-107932976D01*
X104348333Y-107932976D02*
X104491190Y-107980595D01*
X104491190Y-107980595D02*
X105062619Y-108552023D01*
X105062619Y-108552023D02*
X105062619Y-107932976D01*
X104062619Y-107599642D02*
X104062619Y-106980595D01*
X104062619Y-106980595D02*
X104443571Y-107313928D01*
X104443571Y-107313928D02*
X104443571Y-107171071D01*
X104443571Y-107171071D02*
X104491190Y-107075833D01*
X104491190Y-107075833D02*
X104538809Y-107028214D01*
X104538809Y-107028214D02*
X104634047Y-106980595D01*
X104634047Y-106980595D02*
X104872142Y-106980595D01*
X104872142Y-106980595D02*
X104967380Y-107028214D01*
X104967380Y-107028214D02*
X105015000Y-107075833D01*
X105015000Y-107075833D02*
X105062619Y-107171071D01*
X105062619Y-107171071D02*
X105062619Y-107456785D01*
X105062619Y-107456785D02*
X105015000Y-107552023D01*
X105015000Y-107552023D02*
X104967380Y-107599642D01*
%TO.C,C22*%
X98385980Y-112783857D02*
X98433600Y-112831476D01*
X98433600Y-112831476D02*
X98481219Y-112974333D01*
X98481219Y-112974333D02*
X98481219Y-113069571D01*
X98481219Y-113069571D02*
X98433600Y-113212428D01*
X98433600Y-113212428D02*
X98338361Y-113307666D01*
X98338361Y-113307666D02*
X98243123Y-113355285D01*
X98243123Y-113355285D02*
X98052647Y-113402904D01*
X98052647Y-113402904D02*
X97909790Y-113402904D01*
X97909790Y-113402904D02*
X97719314Y-113355285D01*
X97719314Y-113355285D02*
X97624076Y-113307666D01*
X97624076Y-113307666D02*
X97528838Y-113212428D01*
X97528838Y-113212428D02*
X97481219Y-113069571D01*
X97481219Y-113069571D02*
X97481219Y-112974333D01*
X97481219Y-112974333D02*
X97528838Y-112831476D01*
X97528838Y-112831476D02*
X97576457Y-112783857D01*
X97576457Y-112402904D02*
X97528838Y-112355285D01*
X97528838Y-112355285D02*
X97481219Y-112260047D01*
X97481219Y-112260047D02*
X97481219Y-112021952D01*
X97481219Y-112021952D02*
X97528838Y-111926714D01*
X97528838Y-111926714D02*
X97576457Y-111879095D01*
X97576457Y-111879095D02*
X97671695Y-111831476D01*
X97671695Y-111831476D02*
X97766933Y-111831476D01*
X97766933Y-111831476D02*
X97909790Y-111879095D01*
X97909790Y-111879095D02*
X98481219Y-112450523D01*
X98481219Y-112450523D02*
X98481219Y-111831476D01*
X97576457Y-111450523D02*
X97528838Y-111402904D01*
X97528838Y-111402904D02*
X97481219Y-111307666D01*
X97481219Y-111307666D02*
X97481219Y-111069571D01*
X97481219Y-111069571D02*
X97528838Y-110974333D01*
X97528838Y-110974333D02*
X97576457Y-110926714D01*
X97576457Y-110926714D02*
X97671695Y-110879095D01*
X97671695Y-110879095D02*
X97766933Y-110879095D01*
X97766933Y-110879095D02*
X97909790Y-110926714D01*
X97909790Y-110926714D02*
X98481219Y-111498142D01*
X98481219Y-111498142D02*
X98481219Y-110879095D01*
%TO.C,Y1*%
X84577242Y-119077660D02*
X85024903Y-119077660D01*
X84084816Y-119391022D02*
X84577242Y-119077660D01*
X84577242Y-119077660D02*
X84084816Y-118764298D01*
X85024903Y-117958509D02*
X85024903Y-118495701D01*
X85024903Y-118227105D02*
X84084816Y-118227105D01*
X84084816Y-118227105D02*
X84219114Y-118316637D01*
X84219114Y-118316637D02*
X84308646Y-118406169D01*
X84308646Y-118406169D02*
X84353412Y-118495701D01*
%TO.C,U1*%
X85598095Y-109282619D02*
X85598095Y-110092142D01*
X85598095Y-110092142D02*
X85645714Y-110187380D01*
X85645714Y-110187380D02*
X85693333Y-110235000D01*
X85693333Y-110235000D02*
X85788571Y-110282619D01*
X85788571Y-110282619D02*
X85979047Y-110282619D01*
X85979047Y-110282619D02*
X86074285Y-110235000D01*
X86074285Y-110235000D02*
X86121904Y-110187380D01*
X86121904Y-110187380D02*
X86169523Y-110092142D01*
X86169523Y-110092142D02*
X86169523Y-109282619D01*
X87169523Y-110282619D02*
X86598095Y-110282619D01*
X86883809Y-110282619D02*
X86883809Y-109282619D01*
X86883809Y-109282619D02*
X86788571Y-109425476D01*
X86788571Y-109425476D02*
X86693333Y-109520714D01*
X86693333Y-109520714D02*
X86598095Y-109568333D01*
%TO.C,R10*%
X84082619Y-108950357D02*
X83606428Y-109283690D01*
X84082619Y-109521785D02*
X83082619Y-109521785D01*
X83082619Y-109521785D02*
X83082619Y-109140833D01*
X83082619Y-109140833D02*
X83130238Y-109045595D01*
X83130238Y-109045595D02*
X83177857Y-108997976D01*
X83177857Y-108997976D02*
X83273095Y-108950357D01*
X83273095Y-108950357D02*
X83415952Y-108950357D01*
X83415952Y-108950357D02*
X83511190Y-108997976D01*
X83511190Y-108997976D02*
X83558809Y-109045595D01*
X83558809Y-109045595D02*
X83606428Y-109140833D01*
X83606428Y-109140833D02*
X83606428Y-109521785D01*
X84082619Y-107997976D02*
X84082619Y-108569404D01*
X84082619Y-108283690D02*
X83082619Y-108283690D01*
X83082619Y-108283690D02*
X83225476Y-108378928D01*
X83225476Y-108378928D02*
X83320714Y-108474166D01*
X83320714Y-108474166D02*
X83368333Y-108569404D01*
X83082619Y-107378928D02*
X83082619Y-107283690D01*
X83082619Y-107283690D02*
X83130238Y-107188452D01*
X83130238Y-107188452D02*
X83177857Y-107140833D01*
X83177857Y-107140833D02*
X83273095Y-107093214D01*
X83273095Y-107093214D02*
X83463571Y-107045595D01*
X83463571Y-107045595D02*
X83701666Y-107045595D01*
X83701666Y-107045595D02*
X83892142Y-107093214D01*
X83892142Y-107093214D02*
X83987380Y-107140833D01*
X83987380Y-107140833D02*
X84035000Y-107188452D01*
X84035000Y-107188452D02*
X84082619Y-107283690D01*
X84082619Y-107283690D02*
X84082619Y-107378928D01*
X84082619Y-107378928D02*
X84035000Y-107474166D01*
X84035000Y-107474166D02*
X83987380Y-107521785D01*
X83987380Y-107521785D02*
X83892142Y-107569404D01*
X83892142Y-107569404D02*
X83701666Y-107617023D01*
X83701666Y-107617023D02*
X83463571Y-107617023D01*
X83463571Y-107617023D02*
X83273095Y-107569404D01*
X83273095Y-107569404D02*
X83177857Y-107521785D01*
X83177857Y-107521785D02*
X83130238Y-107474166D01*
X83130238Y-107474166D02*
X83082619Y-107378928D01*
%TO.C,C4*%
X84067380Y-123006666D02*
X84115000Y-123054285D01*
X84115000Y-123054285D02*
X84162619Y-123197142D01*
X84162619Y-123197142D02*
X84162619Y-123292380D01*
X84162619Y-123292380D02*
X84115000Y-123435237D01*
X84115000Y-123435237D02*
X84019761Y-123530475D01*
X84019761Y-123530475D02*
X83924523Y-123578094D01*
X83924523Y-123578094D02*
X83734047Y-123625713D01*
X83734047Y-123625713D02*
X83591190Y-123625713D01*
X83591190Y-123625713D02*
X83400714Y-123578094D01*
X83400714Y-123578094D02*
X83305476Y-123530475D01*
X83305476Y-123530475D02*
X83210238Y-123435237D01*
X83210238Y-123435237D02*
X83162619Y-123292380D01*
X83162619Y-123292380D02*
X83162619Y-123197142D01*
X83162619Y-123197142D02*
X83210238Y-123054285D01*
X83210238Y-123054285D02*
X83257857Y-123006666D01*
X83495952Y-122149523D02*
X84162619Y-122149523D01*
X83115000Y-122387618D02*
X83829285Y-122625713D01*
X83829285Y-122625713D02*
X83829285Y-122006666D01*
%TO.C,C24*%
X105007380Y-112802857D02*
X105055000Y-112850476D01*
X105055000Y-112850476D02*
X105102619Y-112993333D01*
X105102619Y-112993333D02*
X105102619Y-113088571D01*
X105102619Y-113088571D02*
X105055000Y-113231428D01*
X105055000Y-113231428D02*
X104959761Y-113326666D01*
X104959761Y-113326666D02*
X104864523Y-113374285D01*
X104864523Y-113374285D02*
X104674047Y-113421904D01*
X104674047Y-113421904D02*
X104531190Y-113421904D01*
X104531190Y-113421904D02*
X104340714Y-113374285D01*
X104340714Y-113374285D02*
X104245476Y-113326666D01*
X104245476Y-113326666D02*
X104150238Y-113231428D01*
X104150238Y-113231428D02*
X104102619Y-113088571D01*
X104102619Y-113088571D02*
X104102619Y-112993333D01*
X104102619Y-112993333D02*
X104150238Y-112850476D01*
X104150238Y-112850476D02*
X104197857Y-112802857D01*
X104197857Y-112421904D02*
X104150238Y-112374285D01*
X104150238Y-112374285D02*
X104102619Y-112279047D01*
X104102619Y-112279047D02*
X104102619Y-112040952D01*
X104102619Y-112040952D02*
X104150238Y-111945714D01*
X104150238Y-111945714D02*
X104197857Y-111898095D01*
X104197857Y-111898095D02*
X104293095Y-111850476D01*
X104293095Y-111850476D02*
X104388333Y-111850476D01*
X104388333Y-111850476D02*
X104531190Y-111898095D01*
X104531190Y-111898095D02*
X105102619Y-112469523D01*
X105102619Y-112469523D02*
X105102619Y-111850476D01*
X104435952Y-110993333D02*
X105102619Y-110993333D01*
X104055000Y-111231428D02*
X104769285Y-111469523D01*
X104769285Y-111469523D02*
X104769285Y-110850476D01*
%TO.C,C1*%
X98317380Y-119584166D02*
X98365000Y-119631785D01*
X98365000Y-119631785D02*
X98412619Y-119774642D01*
X98412619Y-119774642D02*
X98412619Y-119869880D01*
X98412619Y-119869880D02*
X98365000Y-120012737D01*
X98365000Y-120012737D02*
X98269761Y-120107975D01*
X98269761Y-120107975D02*
X98174523Y-120155594D01*
X98174523Y-120155594D02*
X97984047Y-120203213D01*
X97984047Y-120203213D02*
X97841190Y-120203213D01*
X97841190Y-120203213D02*
X97650714Y-120155594D01*
X97650714Y-120155594D02*
X97555476Y-120107975D01*
X97555476Y-120107975D02*
X97460238Y-120012737D01*
X97460238Y-120012737D02*
X97412619Y-119869880D01*
X97412619Y-119869880D02*
X97412619Y-119774642D01*
X97412619Y-119774642D02*
X97460238Y-119631785D01*
X97460238Y-119631785D02*
X97507857Y-119584166D01*
X98412619Y-118631785D02*
X98412619Y-119203213D01*
X98412619Y-118917499D02*
X97412619Y-118917499D01*
X97412619Y-118917499D02*
X97555476Y-119012737D01*
X97555476Y-119012737D02*
X97650714Y-119107975D01*
X97650714Y-119107975D02*
X97698333Y-119203213D01*
%TO.C,D4*%
X107211905Y-114562619D02*
X107211905Y-113562619D01*
X107211905Y-113562619D02*
X107450000Y-113562619D01*
X107450000Y-113562619D02*
X107592857Y-113610238D01*
X107592857Y-113610238D02*
X107688095Y-113705476D01*
X107688095Y-113705476D02*
X107735714Y-113800714D01*
X107735714Y-113800714D02*
X107783333Y-113991190D01*
X107783333Y-113991190D02*
X107783333Y-114134047D01*
X107783333Y-114134047D02*
X107735714Y-114324523D01*
X107735714Y-114324523D02*
X107688095Y-114419761D01*
X107688095Y-114419761D02*
X107592857Y-114515000D01*
X107592857Y-114515000D02*
X107450000Y-114562619D01*
X107450000Y-114562619D02*
X107211905Y-114562619D01*
X108640476Y-113895952D02*
X108640476Y-114562619D01*
X108402381Y-113515000D02*
X108164286Y-114229285D01*
X108164286Y-114229285D02*
X108783333Y-114229285D01*
%TO.C,C20*%
X90507380Y-108885357D02*
X90555000Y-108932976D01*
X90555000Y-108932976D02*
X90602619Y-109075833D01*
X90602619Y-109075833D02*
X90602619Y-109171071D01*
X90602619Y-109171071D02*
X90555000Y-109313928D01*
X90555000Y-109313928D02*
X90459761Y-109409166D01*
X90459761Y-109409166D02*
X90364523Y-109456785D01*
X90364523Y-109456785D02*
X90174047Y-109504404D01*
X90174047Y-109504404D02*
X90031190Y-109504404D01*
X90031190Y-109504404D02*
X89840714Y-109456785D01*
X89840714Y-109456785D02*
X89745476Y-109409166D01*
X89745476Y-109409166D02*
X89650238Y-109313928D01*
X89650238Y-109313928D02*
X89602619Y-109171071D01*
X89602619Y-109171071D02*
X89602619Y-109075833D01*
X89602619Y-109075833D02*
X89650238Y-108932976D01*
X89650238Y-108932976D02*
X89697857Y-108885357D01*
X89697857Y-108504404D02*
X89650238Y-108456785D01*
X89650238Y-108456785D02*
X89602619Y-108361547D01*
X89602619Y-108361547D02*
X89602619Y-108123452D01*
X89602619Y-108123452D02*
X89650238Y-108028214D01*
X89650238Y-108028214D02*
X89697857Y-107980595D01*
X89697857Y-107980595D02*
X89793095Y-107932976D01*
X89793095Y-107932976D02*
X89888333Y-107932976D01*
X89888333Y-107932976D02*
X90031190Y-107980595D01*
X90031190Y-107980595D02*
X90602619Y-108552023D01*
X90602619Y-108552023D02*
X90602619Y-107932976D01*
X89602619Y-107313928D02*
X89602619Y-107218690D01*
X89602619Y-107218690D02*
X89650238Y-107123452D01*
X89650238Y-107123452D02*
X89697857Y-107075833D01*
X89697857Y-107075833D02*
X89793095Y-107028214D01*
X89793095Y-107028214D02*
X89983571Y-106980595D01*
X89983571Y-106980595D02*
X90221666Y-106980595D01*
X90221666Y-106980595D02*
X90412142Y-107028214D01*
X90412142Y-107028214D02*
X90507380Y-107075833D01*
X90507380Y-107075833D02*
X90555000Y-107123452D01*
X90555000Y-107123452D02*
X90602619Y-107218690D01*
X90602619Y-107218690D02*
X90602619Y-107313928D01*
X90602619Y-107313928D02*
X90555000Y-107409166D01*
X90555000Y-107409166D02*
X90507380Y-107456785D01*
X90507380Y-107456785D02*
X90412142Y-107504404D01*
X90412142Y-107504404D02*
X90221666Y-107552023D01*
X90221666Y-107552023D02*
X89983571Y-107552023D01*
X89983571Y-107552023D02*
X89793095Y-107504404D01*
X89793095Y-107504404D02*
X89697857Y-107456785D01*
X89697857Y-107456785D02*
X89650238Y-107409166D01*
X89650238Y-107409166D02*
X89602619Y-107313928D01*
%TO.C,L1*%
X107783333Y-110622619D02*
X107307143Y-110622619D01*
X107307143Y-110622619D02*
X107307143Y-109622619D01*
X108640476Y-110622619D02*
X108069048Y-110622619D01*
X108354762Y-110622619D02*
X108354762Y-109622619D01*
X108354762Y-109622619D02*
X108259524Y-109765476D01*
X108259524Y-109765476D02*
X108164286Y-109860714D01*
X108164286Y-109860714D02*
X108069048Y-109908333D01*
%TO.C,C5*%
X91373333Y-133887380D02*
X91325714Y-133935000D01*
X91325714Y-133935000D02*
X91182857Y-133982619D01*
X91182857Y-133982619D02*
X91087619Y-133982619D01*
X91087619Y-133982619D02*
X90944762Y-133935000D01*
X90944762Y-133935000D02*
X90849524Y-133839761D01*
X90849524Y-133839761D02*
X90801905Y-133744523D01*
X90801905Y-133744523D02*
X90754286Y-133554047D01*
X90754286Y-133554047D02*
X90754286Y-133411190D01*
X90754286Y-133411190D02*
X90801905Y-133220714D01*
X90801905Y-133220714D02*
X90849524Y-133125476D01*
X90849524Y-133125476D02*
X90944762Y-133030238D01*
X90944762Y-133030238D02*
X91087619Y-132982619D01*
X91087619Y-132982619D02*
X91182857Y-132982619D01*
X91182857Y-132982619D02*
X91325714Y-133030238D01*
X91325714Y-133030238D02*
X91373333Y-133077857D01*
X92278095Y-132982619D02*
X91801905Y-132982619D01*
X91801905Y-132982619D02*
X91754286Y-133458809D01*
X91754286Y-133458809D02*
X91801905Y-133411190D01*
X91801905Y-133411190D02*
X91897143Y-133363571D01*
X91897143Y-133363571D02*
X92135238Y-133363571D01*
X92135238Y-133363571D02*
X92230476Y-133411190D01*
X92230476Y-133411190D02*
X92278095Y-133458809D01*
X92278095Y-133458809D02*
X92325714Y-133554047D01*
X92325714Y-133554047D02*
X92325714Y-133792142D01*
X92325714Y-133792142D02*
X92278095Y-133887380D01*
X92278095Y-133887380D02*
X92230476Y-133935000D01*
X92230476Y-133935000D02*
X92135238Y-133982619D01*
X92135238Y-133982619D02*
X91897143Y-133982619D01*
X91897143Y-133982619D02*
X91801905Y-133935000D01*
X91801905Y-133935000D02*
X91754286Y-133887380D01*
D11*
%TO.C,U2*%
X85596500Y-133985000D02*
X85596500Y-133406500D01*
X85596500Y-135833500D02*
X85596500Y-135255000D01*
X86175000Y-133406500D02*
X85596500Y-133406500D01*
X86175000Y-135833500D02*
X85596500Y-135833500D01*
X88523500Y-133406500D02*
X87945000Y-133406500D01*
X88523500Y-133985000D02*
X88523500Y-133406500D01*
X88523500Y-135833500D02*
X87945000Y-135833500D01*
X88523500Y-135833500D02*
X88523500Y-135255000D01*
D12*
X85160000Y-133870000D02*
G75*
G03*
X85160000Y-133870000I-100000J0D01*
G01*
D13*
%TO.C,Q2*%
X86360000Y-105700000D02*
X88035000Y-105700000D01*
X86360000Y-105700000D02*
X85710000Y-105700000D01*
X86360000Y-102580000D02*
X87010000Y-102580000D01*
X86360000Y-102580000D02*
X85710000Y-102580000D01*
%TO.C,D5*%
X105700000Y-115840000D02*
X105700000Y-117840000D01*
X105700000Y-115840000D02*
X109600000Y-115840000D01*
X105700000Y-117840000D02*
X109600000Y-117840000D01*
%TO.C,C15*%
X92250000Y-108096233D02*
X92250000Y-108388767D01*
X91230000Y-108096233D02*
X91230000Y-108388767D01*
%TO.C,R1*%
X86914724Y-123712500D02*
X86405276Y-123712500D01*
X86914724Y-122667500D02*
X86405276Y-122667500D01*
%TO.C,R2*%
X108204724Y-120902500D02*
X107695276Y-120902500D01*
X108204724Y-119857500D02*
X107695276Y-119857500D01*
%TO.C,C18*%
X81640000Y-104286267D02*
X81640000Y-103993733D01*
X82660000Y-104286267D02*
X82660000Y-103993733D01*
%TO.C,C21*%
X100430000Y-108096233D02*
X100430000Y-108388767D01*
X99410000Y-108096233D02*
X99410000Y-108388767D01*
%TO.C,C12*%
X102630000Y-119526267D02*
X102630000Y-119233733D01*
X103650000Y-119526267D02*
X103650000Y-119233733D01*
D11*
%TO.C,J1*%
X103985000Y-137047500D02*
X103985000Y-128547500D01*
X103985000Y-128547500D02*
X93575000Y-128547500D01*
X93575000Y-137047500D02*
X103985000Y-137047500D01*
X93575000Y-128547500D02*
X93575000Y-137047500D01*
D12*
X104720000Y-125272500D02*
G75*
G03*
X104720000Y-125272500I-100000J0D01*
G01*
D13*
%TO.C,J2*%
X106687500Y-130900000D02*
X106687500Y-130450000D01*
X108537500Y-130900000D02*
X106687500Y-130900000D01*
X111087500Y-130900000D02*
X110837500Y-130900000D01*
X106137500Y-128700000D02*
X106587500Y-128700000D01*
X106137500Y-128700000D02*
X106137500Y-128250000D01*
X106687500Y-123100000D02*
X106687500Y-123550000D01*
X108537500Y-123100000D02*
X106687500Y-123100000D01*
X111087500Y-123100000D02*
X110837500Y-123100000D01*
%TO.C,R11*%
X86614724Y-108672500D02*
X86105276Y-108672500D01*
X86614724Y-107627500D02*
X86105276Y-107627500D01*
%TO.C,D3*%
X101060000Y-123520000D02*
X101060000Y-121520000D01*
X101060000Y-123520000D02*
X97210000Y-123520000D01*
X101060000Y-121520000D02*
X97210000Y-121520000D01*
%TO.C,R9*%
X90782224Y-123712500D02*
X90272776Y-123712500D01*
X90782224Y-122667500D02*
X90272776Y-122667500D01*
%TO.C,C2*%
X100470000Y-119233733D02*
X100470000Y-119526267D01*
X99450000Y-119233733D02*
X99450000Y-119526267D01*
%TO.C,C14*%
X100430000Y-111976233D02*
X100430000Y-112268767D01*
X99410000Y-111976233D02*
X99410000Y-112268767D01*
%TO.C,C19*%
X97090000Y-108211233D02*
X97090000Y-108503767D01*
X96070000Y-108211233D02*
X96070000Y-108503767D01*
%TO.C,C17*%
X99450000Y-116123767D02*
X99450000Y-115831233D01*
X100470000Y-116123767D02*
X100470000Y-115831233D01*
%TO.C,C6*%
X91393733Y-131170000D02*
X91686267Y-131170000D01*
X91393733Y-132190000D02*
X91686267Y-132190000D01*
%TO.C,C16*%
X96010000Y-116108767D02*
X96010000Y-115816233D01*
X97030000Y-116108767D02*
X97030000Y-115816233D01*
%TO.C,R8*%
X86405276Y-126107500D02*
X86914724Y-126107500D01*
X86405276Y-127152500D02*
X86914724Y-127152500D01*
D11*
%TO.C,J4*%
X89520000Y-102290000D02*
X90300000Y-102290000D01*
X89520000Y-104770000D02*
X89520000Y-102290000D01*
X90290000Y-105990000D02*
X102750000Y-105990000D01*
X102740000Y-102290000D02*
X103520000Y-102290000D01*
X103520000Y-102290000D02*
X103520000Y-104770000D01*
D12*
X90870000Y-101590000D02*
G75*
G03*
X90870000Y-101590000I-100000J0D01*
G01*
D13*
%TO.C,D6*%
X105700000Y-102340000D02*
X105700000Y-104340000D01*
X105700000Y-102340000D02*
X109600000Y-102340000D01*
X105700000Y-104340000D02*
X109600000Y-104340000D01*
%TO.C,C3*%
X82660000Y-114266233D02*
X82660000Y-114558767D01*
X81640000Y-114266233D02*
X81640000Y-114558767D01*
%TO.C,C23*%
X102650000Y-108388767D02*
X102650000Y-108096233D01*
X103670000Y-108388767D02*
X103670000Y-108096233D01*
%TO.C,C22*%
X96010000Y-112306267D02*
X96010000Y-112013733D01*
X97030000Y-112306267D02*
X97030000Y-112013733D01*
D11*
%TO.C,Y1*%
X81750000Y-119130000D02*
X81750000Y-118130000D01*
X83350000Y-119130000D02*
X83350000Y-118130000D01*
D10*
%TO.C,U1*%
X87295000Y-110745000D02*
X87295000Y-111320000D01*
X87295000Y-110745000D02*
X93045000Y-110745000D01*
X87295000Y-111320000D02*
X85695000Y-111320000D01*
X87295000Y-121395000D02*
X87295000Y-120745000D01*
X87295000Y-121395000D02*
X93045000Y-121395000D01*
X93045000Y-110745000D02*
X93045000Y-111395000D01*
X93045000Y-121395000D02*
X93045000Y-120745000D01*
D13*
%TO.C,R10*%
X81627500Y-108562224D02*
X81627500Y-108052776D01*
X82672500Y-108562224D02*
X82672500Y-108052776D01*
%TO.C,C4*%
X81620000Y-122986267D02*
X81620000Y-122693733D01*
X82640000Y-122986267D02*
X82640000Y-122693733D01*
%TO.C,C24*%
X102667500Y-112306267D02*
X102667500Y-112013733D01*
X103687500Y-112306267D02*
X103687500Y-112013733D01*
%TO.C,C13*%
X103660000Y-115603733D02*
X103660000Y-115896267D01*
X102640000Y-115603733D02*
X102640000Y-115896267D01*
%TO.C,C1*%
X97030000Y-119271233D02*
X97030000Y-119563767D01*
X96010000Y-119271233D02*
X96010000Y-119563767D01*
%TO.C,D4*%
X110200000Y-113100000D02*
X110200000Y-111100000D01*
X110200000Y-113100000D02*
X106300000Y-113100000D01*
X110200000Y-111100000D02*
X106300000Y-111100000D01*
%TO.C,C20*%
X88190000Y-108388767D02*
X88190000Y-108096233D01*
X89210000Y-108388767D02*
X89210000Y-108096233D01*
%TO.C,L1*%
X107347936Y-106260000D02*
X108552064Y-106260000D01*
X107347936Y-108980000D02*
X108552064Y-108980000D01*
%TO.C,C5*%
X91393733Y-134510000D02*
X91686267Y-134510000D01*
X91393733Y-135530000D02*
X91686267Y-135530000D01*
%TD*%
M02*
