%TF.GenerationSoftware,KiCad,Pcbnew,7.0.2*%
%TF.CreationDate,2024-01-28T11:35:20-05:00*%
%TF.ProjectId,E-INK Watch,452d494e-4b20-4576-9174-63682e6b6963,rev?*%
%TF.SameCoordinates,Original*%
%TF.FileFunction,Soldermask,Top*%
%TF.FilePolarity,Negative*%
%FSLAX46Y46*%
G04 Gerber Fmt 4.6, Leading zero omitted, Abs format (unit mm)*
G04 Created by KiCad (PCBNEW 7.0.2) date 2024-01-28 11:35:20*
%MOMM*%
%LPD*%
G01*
G04 APERTURE LIST*
G04 Aperture macros list*
%AMRoundRect*
0 Rectangle with rounded corners*
0 $1 Rounding radius*
0 $2 $3 $4 $5 $6 $7 $8 $9 X,Y pos of 4 corners*
0 Add a 4 corners polygon primitive as box body*
4,1,4,$2,$3,$4,$5,$6,$7,$8,$9,$2,$3,0*
0 Add four circle primitives for the rounded corners*
1,1,$1+$1,$2,$3*
1,1,$1+$1,$4,$5*
1,1,$1+$1,$6,$7*
1,1,$1+$1,$8,$9*
0 Add four rect primitives between the rounded corners*
20,1,$1+$1,$2,$3,$4,$5,0*
20,1,$1+$1,$4,$5,$6,$7,0*
20,1,$1+$1,$6,$7,$8,$9,0*
20,1,$1+$1,$8,$9,$2,$3,0*%
G04 Aperture macros list end*
%ADD10RoundRect,0.250000X-0.625000X0.350000X-0.625000X-0.350000X0.625000X-0.350000X0.625000X0.350000X0*%
%ADD11O,1.750000X1.200000*%
%ADD12RoundRect,0.102000X-0.175000X-0.175000X0.175000X-0.175000X0.175000X0.175000X-0.175000X0.175000X0*%
%ADD13RoundRect,0.150000X0.587500X0.150000X-0.587500X0.150000X-0.587500X-0.150000X0.587500X-0.150000X0*%
%ADD14R,0.900000X1.200000*%
%ADD15RoundRect,0.237500X-0.237500X0.300000X-0.237500X-0.300000X0.237500X-0.300000X0.237500X0.300000X0*%
%ADD16RoundRect,0.237500X0.250000X0.237500X-0.250000X0.237500X-0.250000X-0.237500X0.250000X-0.237500X0*%
%ADD17RoundRect,0.237500X0.237500X-0.300000X0.237500X0.300000X-0.237500X0.300000X-0.237500X-0.300000X0*%
%ADD18RoundRect,0.102000X0.510000X1.000000X-0.510000X1.000000X-0.510000X-1.000000X0.510000X-1.000000X0*%
%ADD19R,1.350000X0.400000*%
%ADD20O,1.900000X1.200000*%
%ADD21R,1.900000X1.200000*%
%ADD22C,1.450000*%
%ADD23R,1.900000X1.500000*%
%ADD24R,1.100000X1.100000*%
%ADD25RoundRect,0.237500X-0.300000X-0.237500X0.300000X-0.237500X0.300000X0.237500X-0.300000X0.237500X0*%
%ADD26RoundRect,0.237500X-0.250000X-0.237500X0.250000X-0.237500X0.250000X0.237500X-0.250000X0.237500X0*%
%ADD27RoundRect,0.102000X-0.200000X-0.400000X0.200000X-0.400000X0.200000X0.400000X-0.200000X0.400000X0*%
%ADD28RoundRect,0.102000X-0.150000X-0.400000X0.150000X-0.400000X0.150000X0.400000X-0.150000X0.400000X0*%
%ADD29RoundRect,0.102000X0.900000X-0.500000X0.900000X0.500000X-0.900000X0.500000X-0.900000X-0.500000X0*%
%ADD30R,1.750000X0.450000*%
%ADD31RoundRect,0.237500X0.237500X-0.250000X0.237500X0.250000X-0.237500X0.250000X-0.237500X-0.250000X0*%
%ADD32RoundRect,0.250001X-0.462499X-1.074999X0.462499X-1.074999X0.462499X1.074999X-0.462499X1.074999X0*%
G04 APERTURE END LIST*
D10*
%TO.C,J3*%
X82550000Y-132080000D03*
D11*
X82550000Y-134080000D03*
%TD*%
D12*
%TO.C,U2*%
X86085000Y-135345000D03*
X86735000Y-135345000D03*
X87385000Y-135345000D03*
X88035000Y-135345000D03*
X88035000Y-133895000D03*
X87385000Y-133895000D03*
X86735000Y-133895000D03*
X86085000Y-133895000D03*
%TD*%
D13*
%TO.C,Q2*%
X87297500Y-105090000D03*
X87297500Y-103190000D03*
X85422500Y-104140000D03*
%TD*%
D14*
%TO.C,D5*%
X106300000Y-116840000D03*
X109600000Y-116840000D03*
%TD*%
D15*
%TO.C,C15*%
X91740000Y-107380000D03*
X91740000Y-109105000D03*
%TD*%
D16*
%TO.C,R1*%
X87572500Y-123190000D03*
X85747500Y-123190000D03*
%TD*%
%TO.C,R2*%
X108862500Y-120380000D03*
X107037500Y-120380000D03*
%TD*%
D17*
%TO.C,C18*%
X82150000Y-105002500D03*
X82150000Y-103277500D03*
%TD*%
D15*
%TO.C,C21*%
X99920000Y-107380000D03*
X99920000Y-109105000D03*
%TD*%
D17*
%TO.C,C12*%
X103140000Y-120242500D03*
X103140000Y-118517500D03*
%TD*%
D18*
%TO.C,J1*%
X102590000Y-125572500D03*
X100050000Y-125572500D03*
X97510000Y-125572500D03*
X94970000Y-125572500D03*
%TD*%
D19*
%TO.C,J2*%
X106987500Y-128300000D03*
X106987500Y-127650000D03*
X106987500Y-127000000D03*
X106987500Y-126350000D03*
X106987500Y-125700000D03*
D20*
X109687500Y-130500000D03*
D21*
X109687500Y-129900000D03*
D22*
X106987500Y-129500000D03*
D23*
X109687500Y-128000000D03*
X109687500Y-126000000D03*
D22*
X106987500Y-124500000D03*
D21*
X109687500Y-124100000D03*
D20*
X109687500Y-123500000D03*
%TD*%
D16*
%TO.C,R11*%
X87272500Y-108150000D03*
X85447500Y-108150000D03*
%TD*%
D24*
%TO.C,D3*%
X100260000Y-122520000D03*
X97460000Y-122520000D03*
%TD*%
D16*
%TO.C,R9*%
X91440000Y-123190000D03*
X89615000Y-123190000D03*
%TD*%
D15*
%TO.C,C2*%
X99960000Y-118517500D03*
X99960000Y-120242500D03*
%TD*%
%TO.C,C14*%
X99920000Y-111260000D03*
X99920000Y-112985000D03*
%TD*%
%TO.C,C19*%
X96580000Y-107495000D03*
X96580000Y-109220000D03*
%TD*%
D17*
%TO.C,C17*%
X99960000Y-116840000D03*
X99960000Y-115115000D03*
%TD*%
D25*
%TO.C,C6*%
X92402500Y-131680000D03*
X90677500Y-131680000D03*
%TD*%
D17*
%TO.C,C16*%
X96520000Y-116825000D03*
X96520000Y-115100000D03*
%TD*%
D26*
%TO.C,R8*%
X85747500Y-126630000D03*
X87572500Y-126630000D03*
%TD*%
D27*
%TO.C,J4*%
X103270000Y-105490000D03*
X89770000Y-105490000D03*
D28*
X102270000Y-102990000D03*
X101770000Y-102990000D03*
X101270000Y-102990000D03*
X100770000Y-102990000D03*
X100270000Y-102990000D03*
X99770000Y-102990000D03*
X99270000Y-102990000D03*
X98770000Y-102990000D03*
X98270000Y-102990000D03*
X97770000Y-102990000D03*
X97270000Y-102990000D03*
X96770000Y-102990000D03*
X96270000Y-102990000D03*
X95770000Y-102990000D03*
X95270000Y-102990000D03*
X94770000Y-102990000D03*
X94270000Y-102990000D03*
X93770000Y-102990000D03*
X93270000Y-102990000D03*
X92770000Y-102990000D03*
X92270000Y-102990000D03*
X91770000Y-102990000D03*
X91270000Y-102990000D03*
X90770000Y-102990000D03*
%TD*%
D14*
%TO.C,D6*%
X106300000Y-103340000D03*
X109600000Y-103340000D03*
%TD*%
D15*
%TO.C,C3*%
X82150000Y-113550000D03*
X82150000Y-115275000D03*
%TD*%
D17*
%TO.C,C23*%
X103160000Y-109105000D03*
X103160000Y-107380000D03*
%TD*%
%TO.C,C22*%
X96520000Y-113022500D03*
X96520000Y-111297500D03*
%TD*%
D29*
%TO.C,Y1*%
X82550000Y-119880000D03*
X82550000Y-117380000D03*
%TD*%
D30*
%TO.C,U1*%
X93770000Y-111845000D03*
X93770000Y-112495000D03*
X93770000Y-113145000D03*
X93770000Y-113795000D03*
X93770000Y-114445000D03*
X93770000Y-115095000D03*
X93770000Y-115745000D03*
X93770000Y-116395000D03*
X93770000Y-117045000D03*
X93770000Y-117695000D03*
X93770000Y-118345000D03*
X93770000Y-118995000D03*
X93770000Y-119645000D03*
X93770000Y-120295000D03*
X86570000Y-120295000D03*
X86570000Y-119645000D03*
X86570000Y-118995000D03*
X86570000Y-118345000D03*
X86570000Y-117695000D03*
X86570000Y-117045000D03*
X86570000Y-116395000D03*
X86570000Y-115745000D03*
X86570000Y-115095000D03*
X86570000Y-114445000D03*
X86570000Y-113795000D03*
X86570000Y-113145000D03*
X86570000Y-112495000D03*
X86570000Y-111845000D03*
%TD*%
D31*
%TO.C,R10*%
X82150000Y-109220000D03*
X82150000Y-107395000D03*
%TD*%
D17*
%TO.C,C4*%
X82130000Y-123702500D03*
X82130000Y-121977500D03*
%TD*%
%TO.C,C24*%
X103177500Y-113022500D03*
X103177500Y-111297500D03*
%TD*%
D15*
%TO.C,C13*%
X103150000Y-114887500D03*
X103150000Y-116612500D03*
%TD*%
%TO.C,C1*%
X96520000Y-118555000D03*
X96520000Y-120280000D03*
%TD*%
D14*
%TO.C,D4*%
X109600000Y-112100000D03*
X106300000Y-112100000D03*
%TD*%
D17*
%TO.C,C20*%
X88700000Y-109105000D03*
X88700000Y-107380000D03*
%TD*%
D32*
%TO.C,L1*%
X106462500Y-107620000D03*
X109437500Y-107620000D03*
%TD*%
D25*
%TO.C,C5*%
X90677500Y-135020000D03*
X92402500Y-135020000D03*
%TD*%
M02*
