%TF.GenerationSoftware,KiCad,Pcbnew,7.0.2*%
%TF.CreationDate,2024-01-28T17:46:45-05:00*%
%TF.ProjectId,E-INK Watch,452d494e-4b20-4576-9174-63682e6b6963,rev?*%
%TF.SameCoordinates,Original*%
%TF.FileFunction,Plated,1,2,PTH,Mixed*%
%TF.FilePolarity,Positive*%
%FSLAX46Y46*%
G04 Gerber Fmt 4.6, Leading zero omitted, Abs format (unit mm)*
G04 Created by KiCad (PCBNEW 7.0.2) date 2024-01-28 17:46:45*
%MOMM*%
%LPD*%
G01*
G04 APERTURE LIST*
%TA.AperFunction,ViaDrill*%
%ADD10C,0.400000*%
%TD*%
G04 aperture for slot hole*
%TA.AperFunction,ComponentDrill*%
%ADD11O,1.300000X0.600000*%
%TD*%
%TA.AperFunction,ComponentDrill*%
%ADD12C,0.750000*%
%TD*%
%TA.AperFunction,ComponentDrill*%
%ADD13C,0.850000*%
%TD*%
G04 APERTURE END LIST*
D10*
X82143600Y-111810800D03*
X82550000Y-118643400D03*
X82804000Y-129667000D03*
X83108800Y-121081800D03*
X83134200Y-116154200D03*
X83515200Y-123647200D03*
X83921600Y-124587000D03*
X84353400Y-129590800D03*
X84556600Y-114731800D03*
X84886800Y-102311200D03*
X85259451Y-130353049D03*
X87096600Y-129438400D03*
X88823800Y-117017800D03*
X88890500Y-120497600D03*
X88958999Y-127526191D03*
X89611200Y-110871000D03*
X89712800Y-130835400D03*
X90703400Y-108331000D03*
X90779600Y-110236000D03*
X91440000Y-121970800D03*
X92049600Y-105562400D03*
X92125800Y-118338600D03*
X92151200Y-120167400D03*
X92621100Y-127927100D03*
X92938600Y-111020498D03*
X93878400Y-127025400D03*
X94081600Y-110464600D03*
X94081600Y-121335800D03*
X95402400Y-107061000D03*
X95445500Y-116586000D03*
X95459917Y-115554681D03*
X95478600Y-108635800D03*
X95926959Y-129285500D03*
X96003599Y-106239799D03*
X96012000Y-101904800D03*
X97434400Y-110210600D03*
X97688400Y-114401600D03*
X97815400Y-120065800D03*
X97891600Y-106578400D03*
X97917000Y-127660400D03*
X98509601Y-104707201D03*
X98856800Y-114401600D03*
X98882200Y-122326400D03*
X98962212Y-124406153D03*
X99004590Y-106589074D03*
X101676200Y-127228600D03*
X101727000Y-109601000D03*
X101727000Y-112979200D03*
X103124000Y-130098800D03*
X104241600Y-126568200D03*
X105003600Y-120192800D03*
X105079800Y-129184400D03*
X106299000Y-110413800D03*
D11*
%TO.C,J2*%
X109687500Y-123500000D03*
X109687500Y-130500000D03*
D12*
%TO.C,J3*%
X82550000Y-132080000D03*
X82550000Y-134080000D03*
D13*
%TO.C,J2*%
X106987500Y-124500000D03*
X106987500Y-129500000D03*
M02*
